<?xml version="1.0" encoding="iso-8859-1"?>
<!-- Generator: Adobe Illustrator 17.1.0, SVG Export Plug-In . SVG Version: 6.00 Build 0)  -->
<!DOCTYPE svg PUBLIC "-//W3C//DTD SVG 1.1//EN" "http://www.w3.org/Graphics/SVG/1.1/DTD/svg11.dtd">
<svg version="1.1" id="Capa_1" xmlns="http://www.w3.org/2000/svg" xmlns:xlink="http://www.w3.org/1999/xlink" x="0px" y="0px"
	 viewBox="0 0 490 490" style="enable-background:new 0 0 490 490;" xml:space="preserve">
<path d="M413.79,359.62l-16.006-53.386c-0.504-1.678-1.654-3.086-3.194-3.916c-1.542-0.831-3.351-1.013-5.026-0.511l-53.388,16.008
	c-2.556,0.767-4.4,2.999-4.671,5.654c-0.27,2.657,1.087,5.214,3.436,6.48l19.544,10.527c-19.033,35.103-53.596,58.835-92.982,64.112
	v-218.31h39.926c4.893,6.227,12.488,10.231,21.022,10.231c14.764,0,26.733-11.97,26.733-26.735c0-14.764-11.97-26.733-26.733-26.733
	c-8.534,0-16.129,4.003-21.022,10.231h-39.926v-45.564c22.353-7.03,38.614-27.946,38.614-52.59C300.117,24.726,275.392,0,245,0
	s-55.117,24.726-55.117,55.118c0,24.645,16.261,45.56,38.614,52.59v45.564h-39.926c-4.894-6.228-12.488-10.231-21.023-10.231
	c-14.765,0-26.733,11.969-26.733,26.733c0,14.765,11.969,26.735,26.733,26.735c8.534,0,16.129-4.005,21.023-10.231h39.926v218.31
	c-39.387-5.276-73.949-29.008-92.982-64.112l19.544-10.527c2.35-1.267,3.706-3.824,3.437-6.48c-0.271-2.655-2.115-4.888-4.672-5.654
	l-53.387-16.008c-1.676-0.502-3.485-0.32-5.025,0.511c-1.541,0.83-2.691,2.238-3.194,3.916L76.21,359.62
	c-0.768,2.558,0.082,5.325,2.15,7.013c1.205,0.981,2.686,1.484,4.174,1.484c1.069,0,2.146-0.259,3.129-0.789l20.696-11.148
	c12.876,24.526,31.982,43.426,55.268,58.651c40.322,26.362,62.435,41.202,71.527,64.839C234.861,484.11,237.648,490,245,490
	c7.351,0,10.139-5.89,11.846-10.33c9.093-23.637,31.205-38.477,71.527-64.839c23.286-15.225,42.392-34.125,55.269-58.651
	l20.695,11.148c0.982,0.529,2.059,0.789,3.129,0.789c1.489,0,2.969-0.503,4.174-1.484
	C413.707,364.945,414.558,362.178,413.79,359.62z M245,77.229c-12.192,0-22.112-9.919-22.112-22.111
	c0-12.193,9.92-22.113,22.112-22.113c12.192,0,22.112,9.919,22.112,22.113C267.112,67.31,257.193,77.229,245,77.229z"/>
<g>
</g>
<g>
</g>
<g>
</g>
<g>
</g>
<g>
</g>
<g>
</g>
<g>
</g>
<g>
</g>
<g>
</g>
<g>
</g>
<g>
</g>
<g>
</g>
<g>
</g>
<g>
</g>
<g>
</g>
</svg>
