<?xml version="1.0" encoding="iso-8859-1"?>
<!-- Generator: Adobe Illustrator 17.1.0, SVG Export Plug-In . SVG Version: 6.00 Build 0)  -->
<!DOCTYPE svg PUBLIC "-//W3C//DTD SVG 1.1//EN" "http://www.w3.org/Graphics/SVG/1.1/DTD/svg11.dtd">
<svg version="1.1" id="Capa_1" xmlns="http://www.w3.org/2000/svg" xmlns:xlink="http://www.w3.org/1999/xlink" x="0px" y="0px"
	 viewBox="0 0 510.986 510.986" style="enable-background:new 0 0 510.986 510.986;" xml:space="preserve">
<path d="M447.486,0c-29.181,0-54.575,20.226-61.577,48H242.466c-10.55,0-20.47,4.109-27.931,11.569L9.212,264.893
	c-12.282,12.282-12.282,32.266,0,44.548l192.333,192.333c6.141,6.141,14.208,9.211,22.274,9.211s16.133-3.07,22.274-9.211
	L451.417,296.45c7.46-7.461,11.569-17.38,11.569-27.931V138.38c6.169-3.172,12.003-6.858,17.329-11.102
	c20.065-15.987,30.671-38.042,30.671-63.778C510.986,28.486,482.5,0,447.486,0z M447.986,268.52c0,6.544-2.548,12.696-7.176,17.324
	L235.486,491.168c-6.434,6.434-16.901,6.434-23.335,0L19.818,298.835c-6.433-6.434-6.433-16.901,0-23.335L225.142,70.176
	C229.77,65.548,235.922,63,242.466,63h189.02c9.098,0,16.5,7.402,16.5,16.5v49.274c-13.084,5.388-27.495,8.491-41.343,9.604
	C404.122,119.011,387.529,104,367.486,104c-21.78,0-39.5,17.72-39.5,39.5s17.72,39.5,39.5,39.5
	c18.316,0,33.756-12.532,38.206-29.471c14.033-0.931,28.617-3.722,42.294-8.648V268.52z M365.81,150.811
	c7.258,1.663,15.357,2.669,23.906,2.97c-3.894,8.387-12.392,14.22-22.231,14.22c-13.509,0-24.5-10.991-24.5-24.5
	s10.991-24.5,24.5-24.5c11.904,0,21.847,8.535,24.044,19.805c-8.081-0.195-15.688-1.085-22.368-2.616
	c-4.036-0.927-8.061,1.597-8.986,5.635C359.25,145.862,361.773,149.885,365.81,150.811z M470.967,115.547
	c-2.523,2.01-5.195,3.875-7.981,5.608V79.5c0-17.369-14.131-31.5-31.5-31.5h-29.964c6.542-19.307,24.973-33,45.964-33
	c26.743,0,48.5,21.757,48.5,48.5C495.986,84.808,487.568,102.319,470.967,115.547z"/>
<g>
</g>
<g>
</g>
<g>
</g>
<g>
</g>
<g>
</g>
<g>
</g>
<g>
</g>
<g>
</g>
<g>
</g>
<g>
</g>
<g>
</g>
<g>
</g>
<g>
</g>
<g>
</g>
<g>
</g>
</svg>
